<svg width="615" height="337" viewBox="0 0 615 337" fill="none" xmlns="http://www.w3.org/2000/svg">
<rect width="615" height="336.56" fill="white"/>
<path d="M282.243 81.9C276.843 84.3 273.643 89 273.043 95.1L272.543 100H262.143C255.443 100 250.543 100.5 248.343 101.4C244.043 103.2 241.643 107.8 242.043 113.3L242.343 117.5H307.343H372.343L372.643 113.3C373.043 107.8 370.643 103.2 366.343 101.4C364.143 100.5 359.343 100 353.543 100H344.143L343.443 95C342.943 91.4 341.843 89 339.543 86.3C334.343 80.4 332.443 80 308.143 80C289.043 80 285.843 80.3 282.243 81.9ZM331.843 92C332.943 93.1 333.843 95.3 333.843 97V100H308.043H282.143L282.643 96.7C283.543 90 283.743 90 308.043 90C328.543 90 329.943 90.1 331.843 92Z" fill="black"/>
<path d="M249.443 127.3C247.643 128.6 247.743 130.5 251.243 179.6C256.443 251.5 255.843 247.9 263.243 253.4C265.943 255.4 267.143 255.5 307.343 255.5C347.543 255.5 348.743 255.4 351.443 253.4C352.943 252.3 355.143 250.2 356.243 248.7C358.443 245.7 358.643 244 363.843 172.1C366.943 130.4 366.943 128.6 365.243 127.3C362.643 125.4 252.043 125.4 249.443 127.3ZM278.643 140.2C279.243 141 280.243 160.7 281.143 188C282.643 234.2 282.643 234.5 280.643 236.2C279.143 237.5 278.143 237.7 276.843 237C274.543 235.8 274.243 231.4 272.743 179.8C271.543 140 271.643 139 275.843 139C276.843 139 278.043 139.6 278.643 140.2ZM310.643 187.7C310.843 234.9 310.843 235.9 308.843 237C307.343 237.8 306.443 237.6 304.843 236C302.943 234.1 302.843 232.8 302.843 188.4C302.843 158.1 303.243 142.2 303.943 140.9C304.643 139.5 305.843 139 307.643 139.2L310.343 139.5L310.643 187.7ZM341.743 140.3C342.543 141.3 342.443 154.3 341.343 188.6C340.043 230.9 339.743 235.6 338.243 236.7C335.943 238.4 335.443 238.3 333.543 236.2C332.143 234.7 332.143 230.2 333.443 188.1C334.343 156.6 335.143 141.3 335.943 140.4C337.443 138.6 340.243 138.6 341.743 140.3Z" fill="black"/>
</svg>
