<svg width="131" height="176" viewBox="0 0 131 176" fill="none" xmlns="http://www.w3.org/2000/svg">
<path d="M40.2432 1.9C34.8432 4.3 31.6432 9 31.0432 15.1L30.5432 20H20.1432C13.4432 20 8.54319 20.5 6.34319 21.4C2.04319 23.2 -0.356809 27.8 0.0431909 33.3L0.343191 37.5H65.3432H130.343L130.643 33.3C131.043 27.8 128.643 23.2 124.343 21.4C122.143 20.5 117.343 20 111.543 20H102.143L101.443 15C100.943 11.4 99.8432 9 97.5432 6.3C92.3432 0.399998 90.4432 0 66.1432 0C47.0432 0 43.8432 0.299999 40.2432 1.9ZM89.8432 12C90.9432 13.1 91.8432 15.3 91.8432 17V20H66.0432H40.1432L40.6432 16.7C41.5432 10 41.7432 10 66.0432 10C86.5432 10 87.9432 10.1 89.8432 12Z" fill="black"/>
<path d="M7.44325 47.3C5.64325 48.6 5.74325 50.5 9.24325 99.6C14.4433 171.5 13.8433 167.9 21.2433 173.4C23.9433 175.4 25.1432 175.5 65.3433 175.5C105.543 175.5 106.743 175.4 109.443 173.4C110.943 172.3 113.143 170.2 114.243 168.7C116.443 165.7 116.643 164 121.843 92.1C124.943 50.4 124.943 48.6 123.243 47.3C120.643 45.4 10.0433 45.4 7.44325 47.3ZM36.6432 60.2C37.2432 61 38.2432 80.7 39.1432 108C40.6432 154.2 40.6432 154.5 38.6432 156.2C37.1432 157.5 36.1432 157.7 34.8433 157C32.5432 155.8 32.2433 151.4 30.7433 99.8C29.5433 60 29.6432 59 33.8433 59C34.8433 59 36.0432 59.6 36.6432 60.2ZM68.6432 107.7C68.8433 154.9 68.8433 155.9 66.8433 157C65.3433 157.8 64.4432 157.6 62.8433 156C60.9432 154.1 60.8433 152.8 60.8433 108.4C60.8433 78.1 61.2433 62.2 61.9432 60.9C62.6432 59.5 63.8433 59 65.6432 59.2L68.3433 59.5L68.6432 107.7ZM99.7432 60.3C100.543 61.3 100.443 74.3 99.3433 108.6C98.0433 150.9 97.7432 155.6 96.2432 156.7C93.9433 158.4 93.4433 158.3 91.5433 156.2C90.1432 154.7 90.1432 150.2 91.4433 108.1C92.3433 76.6 93.1432 61.3 93.9433 60.4C95.4433 58.6 98.2432 58.6 99.7432 60.3Z" fill="black"/>
</svg>
