<svg width="68" height="58" viewBox="0 0 68 58" fill="none" xmlns="http://www.w3.org/2000/svg">
<mask id="path-1-inside-1_175_19" fill="white">
<rect y="4.82324" width="68" height="53.1767" rx="4.77193"/>
</mask>
<rect y="4.82324" width="68" height="53.1767" rx="4.77193" stroke="white" stroke-width="10" mask="url(#path-1-inside-1_175_19)"/>
<rect x="56.8807" y="46.4844" width="22.7614" height="8.79142" rx="1.55088" transform="rotate(-180 56.8807 46.4844)" fill="white" stroke="white" stroke-width="0.238596"/>
<rect x="56.9051" y="6.34429" width="5.01053" height="6.22499" rx="1.07368" transform="rotate(-180 56.9051 6.34429)" fill="white"/>
<rect x="56.9051" y="6.34429" width="5.01053" height="6.22499" rx="1.07368" transform="rotate(-180 56.9051 6.34429)" fill="white"/>
<rect x="56.9051" y="6.34429" width="5.01053" height="6.22499" rx="1.07368" transform="rotate(-180 56.9051 6.34429)" stroke="white" stroke-width="0.238596"/>
<rect x="16.1053" y="6.34429" width="5.01053" height="6.22499" rx="1.07368" transform="rotate(-180 16.1053 6.34429)" fill="white"/>
<rect x="16.1053" y="6.34429" width="5.01053" height="6.22499" rx="1.07368" transform="rotate(-180 16.1053 6.34429)" fill="white"/>
<rect x="16.1053" y="6.34429" width="5.01053" height="6.22499" rx="1.07368" transform="rotate(-180 16.1053 6.34429)" stroke="white" stroke-width="0.238596"/>
</svg>
