<svg width="596" height="232" viewBox="0 0 596 232" fill="none" xmlns="http://www.w3.org/2000/svg">
<rect width="596" height="232" fill="#B8B4B4"/>
<path d="M225.328 44.618C222.959 45.6497 219.826 50.292 219.291 53.4728C219.062 55.0202 218.909 83.9056 219.062 117.691C219.291 186.122 218.985 181.824 224.488 185.606C226.857 187.24 228.92 187.326 298.008 187.326C367.095 187.326 369.158 187.24 371.527 185.606C377.03 181.824 376.724 186.208 376.954 117.433C377.106 77.8019 376.877 54.5904 376.342 52.5271C375.96 50.7218 374.508 48.1428 373.285 46.7673L373.194 46.6684C371.742 45.0874 369.695 44.1853 367.548 44.1802L298.925 44.0163C259.337 43.9303 226.245 44.1882 225.328 44.618ZM365.643 55.7939C366.483 56.7396 367.248 58.2011 367.248 58.9748C367.553 63.703 367.477 133.166 367.248 133.166C367.018 133.166 363.197 129.125 358.765 124.139C347.301 111.502 348.447 111.33 332.322 128.523L325.282 136.056C322.289 139.259 317.228 139.316 314.163 136.182L313.063 135.057C309.395 131.188 300.759 121.732 293.804 113.823C280.659 98.8641 277.984 96.543 275.31 97.5746C274.393 97.8325 263.922 106.429 252 116.574C240.078 126.632 229.837 135.143 229.226 135.401C228.232 135.831 228.08 131.188 228.08 98.5203C228.08 74.7262 228.08 63.5783 228.08 58.5817C228.08 56.2098 229.414 54.5091 231.783 54.4015C239.251 54.0627 258.768 54.0746 298.16 54.0746C363.121 54.0746 364.114 54.0746 365.643 55.7939ZM306.796 143.052C319.636 156.635 332.016 169.874 334.309 172.367V172.367C335.926 174.153 334.659 177.009 332.25 177.009H285.627H232.741V177.009C230.224 176.916 228.232 174.848 228.232 172.329L228.232 162.051L228.232 151.444C228.232 151.286 228.046 151.201 227.927 151.305V151.305L234.346 145.717C237.862 142.622 248.638 133.423 258.267 125.17L271.609 113.816C273.983 111.796 277.524 111.988 279.666 114.252V114.252C281.806 116.402 293.957 129.383 306.796 143.052ZM361.134 141.333L365.306 145.558C366.699 146.968 367.494 148.862 367.524 150.844L367.673 160.498L367.706 172.367V172.367C367.706 174.931 365.629 177.009 363.065 177.009C361.441 177.009 359.573 177.009 357.771 177.009L355.566 176.975C353.46 176.942 351.46 176.047 350.033 174.5L339.659 163.255L331.849 154.736C329.138 151.779 329.155 147.236 331.887 144.299L337.366 138.41L344.329 130.925C346.155 128.963 349.25 128.926 351.122 130.844V130.844C353.033 132.736 357.542 137.464 361.134 141.333Z" fill="#696969"/>
<path d="M337.938 85.6376C337.938 94.4342 331.599 101.565 323.779 101.565C315.959 101.565 309.62 94.4342 309.62 85.6376C309.62 76.841 315.959 69.71 323.779 69.71C331.599 69.71 337.938 76.841 337.938 85.6376ZM315.564 85.6376C315.564 90.7412 319.242 94.8784 323.779 94.8784C328.316 94.8784 331.994 90.7412 331.994 85.6376C331.994 80.5341 328.316 76.3968 323.779 76.3968C319.242 76.3968 315.564 80.5341 315.564 85.6376Z" fill="#696969"/>
</svg>
