<svg width="22" height="18" viewBox="0 0 22 18" fill="none" xmlns="http://www.w3.org/2000/svg">
<rect width="5.42029" height="5.27586" rx="0.956522" transform="matrix(-1 0 0 1 5.42017 12.7241)" fill="white"/>
<rect width="5.42029" height="5.27586" rx="0.956522" transform="matrix(-1 0 0 1 13.7102 12.7241)" fill="white"/>
<rect width="5.42029" height="5.27586" rx="0.956522" transform="matrix(-1 0 0 1 22 12.7241)" fill="white"/>
<rect width="5.42029" height="5.27586" rx="0.956522" transform="matrix(-1 0 0 1 5.42017 6.20691)" fill="white"/>
<rect width="5.42029" height="5.27586" rx="0.956522" transform="matrix(-1 0 0 1 13.7102 6.20691)" fill="white"/>
<rect width="5.42029" height="5.27586" rx="0.956522" transform="matrix(-1 0 0 1 22 6.20691)" fill="white"/>
<rect width="5.42029" height="5.27586" rx="0.956522" transform="matrix(-1 0 0 1 5.42017 0)" fill="white"/>
<rect width="5.42029" height="5.27586" rx="0.956522" transform="matrix(-1 0 0 1 13.7102 0)" fill="white"/>
<rect width="5.42029" height="5.27586" rx="0.956522" transform="matrix(-1 0 0 1 22 0)" fill="white"/>
</svg>
