<svg width="69" height="58" viewBox="0 0 69 58" fill="none" xmlns="http://www.w3.org/2000/svg">
<rect width="17" height="17" rx="3" transform="matrix(-1 0 0 1 17 41)" fill="white"/>
<rect width="17" height="17" rx="3" transform="matrix(-1 0 0 1 43 41)" fill="white"/>
<rect width="17" height="17" rx="3" transform="matrix(-1 0 0 1 69 41)" fill="white"/>
<rect width="17" height="17" rx="3" transform="matrix(-1 0 0 1 17 20)" fill="white"/>
<rect width="17" height="17" rx="3" transform="matrix(-1 0 0 1 43 20)" fill="white"/>
<rect width="17" height="17" rx="3" transform="matrix(-1 0 0 1 69 20)" fill="white"/>
<rect width="17" height="17" rx="3" transform="matrix(-1 0 0 1 17 0)" fill="white"/>
<rect width="17" height="17" rx="3" transform="matrix(-1 0 0 1 43 0)" fill="white"/>
<rect width="17" height="17" rx="3" transform="matrix(-1 0 0 1 69 0)" fill="white"/>
</svg>
