<svg width="57" height="57" viewBox="0 0 57 57" fill="none" xmlns="http://www.w3.org/2000/svg">
<path d="M25.6773 56.5421C24.5134 56.2861 23.3537 56.0136 22.1857 55.7781C15.8666 54.506 9.54471 53.2436 3.22284 51.977C2.95583 51.9236 2.68472 51.8853 2.42045 51.8182C1.35928 51.5457 0.645895 50.6461 0.641787 49.5493C0.633572 47.3256 0.639049 45.1033 0.639049 42.8797C0.639049 29.6499 0.652741 16.4214 0.619879 3.19165C0.61714 1.78269 1.5633 0.522967 3.29404 0.529813C15.501 0.574999 27.7079 0.57226 39.9135 0.531182C41.5457 0.525705 42.6712 1.62385 42.6465 3.25601C42.5794 7.79237 42.626 12.3301 42.6205 16.8678C42.6192 17.9194 41.977 18.7998 41.0212 19.1079C40.0477 19.4215 38.9537 19.1189 38.4224 18.2412C38.1362 17.7702 37.9623 17.1554 37.9555 16.6036C37.9144 13.0503 37.9349 9.4971 37.9349 5.94387C37.9349 5.72889 37.9349 5.51529 37.9349 5.27293C31.7116 5.27293 25.5418 5.27293 19.3733 5.27293C19.3664 5.29484 19.3582 5.31538 19.3513 5.33728C19.9566 5.52624 20.5618 5.71931 21.1683 5.90142C23.0292 6.45871 24.8914 7.00915 26.7522 7.56781C28.0393 7.95394 28.6281 8.75222 28.6281 10.0982C28.6281 22.1984 28.6281 34.2971 28.6281 46.3973C28.6281 46.6314 28.6281 46.8656 28.6281 47.1463C31.7294 47.1463 34.7952 47.1463 37.9349 47.1463C37.9349 46.9354 37.9349 46.7232 37.9349 46.5109C37.9349 42.9207 37.9281 39.3319 37.9377 35.7417C37.9418 34.1178 39.0947 33.0648 40.6269 33.2469C41.7743 33.3838 42.6192 34.367 42.6205 35.5966C42.6246 40.2247 42.6219 44.8528 42.6219 49.4822C42.6219 49.5192 42.6219 49.5548 42.6205 49.5918C42.5931 50.7871 41.725 51.7292 40.5297 51.851C40.2586 51.8784 39.9847 51.8894 39.7122 51.8894C36.2507 51.8921 32.7892 51.8908 29.3278 51.8908C29.1128 51.8908 28.8978 51.8908 28.6267 51.8908C28.6267 52.6178 28.6103 53.286 28.6308 53.9556C28.6664 55.1742 28.1406 56.0095 26.9932 56.4435C26.948 56.46 26.9165 56.5106 26.8782 56.5449C26.4797 56.5421 26.0785 56.5421 25.6773 56.5421ZM5.3315 6.04519C5.3315 6.29851 5.3315 6.46008 5.3315 6.62165C5.3315 12.6888 5.3315 18.7574 5.3315 24.8246C5.3315 32.2227 5.33424 39.6208 5.32465 47.0189C5.32465 47.4366 5.38216 47.6392 5.87099 47.7351C11.2522 48.7908 16.6279 49.8807 22.005 50.9597C22.6335 51.0856 23.2647 51.1965 23.9247 51.3211C23.9247 38.0462 23.9247 24.8575 23.9247 11.6222C17.7562 9.77369 11.5904 7.92382 5.3315 6.04519Z" fill="#696969"/>
<path d="M56.62 26.7974C56.1846 27.3657 55.8012 27.9846 55.3028 28.4926C53.2379 30.6013 51.143 32.6812 49.0494 34.7611C48.0443 35.7593 46.6984 35.8209 45.7193 34.9445C44.7116 34.0422 44.6691 32.588 45.6605 31.5392C46.4738 30.6793 47.3282 29.8577 48.1635 29.0184C48.2853 28.8952 48.3976 28.7623 48.5921 28.5474C48.2922 28.5474 48.1005 28.5474 47.9088 28.5474C43.8092 28.5474 39.711 28.5501 35.6115 28.5446C34.5681 28.5433 33.7109 27.8956 33.4015 26.9138C33.103 25.969 33.4015 24.8668 34.2504 24.3588C34.7379 24.0671 35.3691 23.885 35.9387 23.8796C39.9096 23.8398 43.8818 23.859 47.8527 23.8576C48.0512 23.8576 48.2497 23.8576 48.5359 23.8576C48.4058 23.6961 48.3333 23.5852 48.2415 23.4921C47.3816 22.6253 46.5067 21.7736 45.6605 20.8946C45.0046 20.214 44.7568 19.398 45.0731 18.4833C45.3852 17.5823 46.0439 17.0442 46.9859 16.8963C47.739 16.7772 48.4031 17.0278 48.9316 17.5522C51.2991 19.9005 53.6583 22.2556 55.997 24.6326C56.2777 24.9175 56.416 25.3433 56.62 25.7048C56.62 26.069 56.62 26.4332 56.62 26.7974Z" fill="#696969"/>
</svg>
