<svg width="249" height="74" viewBox="0 0 249 74" fill="none" xmlns="http://www.w3.org/2000/svg">
<path d="M12.07 52H2.86167V32.9033H0.113333V29.135L2.975 27.9167V25.4517C2.975 23.5439 3.23944 21.8911 3.76833 20.4933C4.29722 19.0956 5.03389 18.0094 5.97833 17.235C6.94167 16.4606 7.99944 15.9033 9.15167 15.5633C10.3228 15.2044 11.6261 15.025 13.0617 15.025C14.3461 15.025 15.555 15.195 16.6883 15.535C17.8217 15.875 18.53 16.1867 18.8133 16.47L17.7367 20.7767C16.83 20.3233 15.895 20.0967 14.9317 20.0967C14.6861 20.0967 14.4594 20.1156 14.2517 20.1533C12.7972 20.38 12.07 21.6172 12.07 23.865V27.9167H15.725V32.9033H12.07V52ZM47.5216 52.595C44.9716 52.595 43.1866 51.83 42.1666 50.3C41.1655 48.77 40.665 46.1822 40.665 42.5367V32.9033H38.71V28.965L42.0533 27.9167L44.9433 21.315H49.93V27.9167H54.5766V32.9033H49.845V43.4433C49.845 44.9544 50.0622 45.9556 50.4966 46.4467C50.9311 46.9378 51.6016 47.1833 52.5083 47.1833C52.905 47.1833 53.2639 47.1361 53.585 47.0417C53.9061 46.9472 54.1705 46.815 54.3783 46.645V50.4983C54.095 50.7817 53.7266 51.065 53.2733 51.3483C52.82 51.6128 52.0644 51.8867 51.0066 52.17C49.9678 52.4533 48.8061 52.595 47.5216 52.595ZM68.4682 49.195C69.2993 49.195 69.9321 48.855 70.3665 48.175C70.8198 47.4761 71.0465 46.5222 71.0465 45.3133V36.36C71.0465 32.6767 70.1776 30.835 68.4398 30.835C67.6276 30.835 66.9948 31.1656 66.5415 31.8267C66.0882 32.4878 65.8615 33.4228 65.8615 34.6317V43.84C65.8615 47.41 66.7304 49.195 68.4682 49.195ZM68.2415 52.595C63.9159 52.595 60.7521 51.6128 58.7498 49.6483C56.7476 47.6839 55.7465 44.5483 55.7465 40.2417C55.7465 35.9728 56.7571 32.7617 58.7782 30.6083C60.7993 28.4361 64.0859 27.35 68.6382 27.35C73.0771 27.35 76.2787 28.3889 78.2432 30.4667C80.2265 32.5256 81.2182 35.6517 81.2182 39.845C81.2182 44.1894 80.1698 47.4006 78.0732 49.4783C75.9954 51.5561 72.7182 52.595 68.2415 52.595ZM84.3614 38.8533V31.7417H101.305V38.8533H84.3614ZM119.602 52L115.21 40.4117L119.857 27.9167H130.482L123.059 39.0517L130.652 52H119.602ZM105.407 52V19.955L103.707 18.935V16.3L112.802 14.8833H114.644V52H105.407ZM144.424 37.3517C144.424 34.9528 144.301 33.2528 144.056 32.2517C143.81 31.2506 143.357 30.75 142.696 30.75C142.129 30.75 141.666 30.8539 141.307 31.0617C140.948 31.2506 140.684 31.5622 140.514 31.9967C140.344 32.4122 140.231 32.8467 140.174 33.3C140.136 33.7344 140.117 34.2917 140.117 34.9717V37.3517H144.424ZM142.157 52.595C140.042 52.595 138.2 52.2739 136.632 51.6317C135.083 50.9894 133.856 50.0922 132.949 48.94C132.061 47.7878 131.409 46.4939 130.994 45.0583C130.578 43.6039 130.371 41.9889 130.371 40.2133C130.371 35.9822 131.447 32.7806 133.601 30.6083C135.754 28.4361 138.767 27.35 142.639 27.35C146.36 27.35 149.023 28.2283 150.629 29.985C152.234 31.7228 153.037 34.5278 153.037 38.4V41.545H140.089V42.0833C140.089 43.1978 140.202 44.1139 140.429 44.8317C140.674 45.5494 141.024 46.0783 141.477 46.4183C141.931 46.7583 142.393 46.985 142.866 47.0983C143.338 47.2117 143.914 47.2683 144.594 47.2683C145.255 47.2683 145.963 47.1833 146.719 47.0133C147.493 46.8433 148.268 46.5789 149.042 46.22C149.836 45.8611 150.497 45.4361 151.026 44.945L152.697 47.8067C151.998 48.94 150.969 49.8939 149.609 50.6683C148.268 51.4239 146.974 51.9339 145.727 52.1983C144.481 52.4628 143.291 52.595 142.157 52.595ZM168.828 37.3517C168.828 34.9528 168.705 33.2528 168.46 32.2517C168.214 31.2506 167.761 30.75 167.1 30.75C166.533 30.75 166.07 30.8539 165.711 31.0617C165.353 31.2506 165.088 31.5622 164.918 31.9967C164.748 32.4122 164.635 32.8467 164.578 33.3C164.54 33.7344 164.521 34.2917 164.521 34.9717V37.3517H168.828ZM166.561 52.595C164.446 52.595 162.604 52.2739 161.036 51.6317C159.488 50.9894 158.26 50.0922 157.353 48.94C156.465 47.7878 155.814 46.4939 155.398 45.0583C154.983 43.6039 154.775 41.9889 154.775 40.2133C154.775 35.9822 155.851 32.7806 158.005 30.6083C160.158 28.4361 163.171 27.35 167.043 27.35C170.764 27.35 173.428 28.2283 175.033 29.985C176.639 31.7228 177.441 34.5278 177.441 38.4V41.545H164.493V42.0833C164.493 43.1978 164.606 44.1139 164.833 44.8317C165.079 45.5494 165.428 46.0783 165.881 46.4183C166.335 46.7583 166.798 46.985 167.27 47.0983C167.742 47.2117 168.318 47.2683 168.998 47.2683C169.659 47.2683 170.368 47.1833 171.123 47.0133C171.898 46.8433 172.672 46.5789 173.446 46.22C174.24 45.8611 174.901 45.4361 175.43 44.945L177.101 47.8067C176.403 48.94 175.373 49.8939 174.013 50.6683C172.672 51.4239 171.378 51.9339 170.131 52.1983C168.885 52.4628 167.695 52.595 166.561 52.595ZM195.017 52C193.922 52 192.921 51.8867 192.014 51.66C191.107 51.4333 190.314 51.15 189.634 50.81V60.5567H180.511V33.6683L178.811 32.62V29.5883L184.902 27.9167H189.634V29.815C190.314 29.1161 191.136 28.5306 192.099 28.0583C193.062 27.5861 194.186 27.35 195.471 27.35C198.587 27.35 200.873 28.4172 202.327 30.5517C203.801 32.6861 204.537 35.6422 204.537 39.42C204.537 41.1956 204.339 42.8389 203.942 44.35C203.546 45.8422 202.96 47.1644 202.186 48.3167C201.411 49.4689 200.41 50.3756 199.182 51.0367C197.974 51.6789 196.585 52 195.017 52ZM190.852 48.0617C193.384 48.0617 194.649 46.1256 194.649 42.2533V37.4367C194.649 35.7367 194.356 34.4711 193.771 33.64C193.204 32.8089 192.467 32.3933 191.561 32.3933C190.937 32.3933 190.295 32.5822 189.634 32.96V47.92C189.861 47.9767 190.069 48.0144 190.257 48.0333C190.465 48.0522 190.664 48.0617 190.852 48.0617ZM220.542 37.3517C220.542 34.9528 220.419 33.2528 220.174 32.2517C219.928 31.2506 219.475 30.75 218.814 30.75C218.247 30.75 217.784 30.8539 217.425 31.0617C217.066 31.2506 216.802 31.5622 216.632 31.9967C216.462 32.4122 216.349 32.8467 216.292 33.3C216.254 33.7344 216.235 34.2917 216.235 34.9717V37.3517H220.542ZM218.275 52.595C216.16 52.595 214.318 52.2739 212.75 51.6317C211.201 50.9894 209.974 50.0922 209.067 48.94C208.179 47.7878 207.528 46.4939 207.112 45.0583C206.696 43.6039 206.489 41.9889 206.489 40.2133C206.489 35.9822 207.565 32.7806 209.719 30.6083C211.872 28.4361 214.885 27.35 218.757 27.35C222.478 27.35 225.141 28.2283 226.747 29.985C228.353 31.7228 229.155 34.5278 229.155 38.4V41.545H216.207V42.0833C216.207 43.1978 216.32 44.1139 216.547 44.8317C216.793 45.5494 217.142 46.0783 217.595 46.4183C218.049 46.7583 218.511 46.985 218.984 47.0983C219.456 47.2117 220.032 47.2683 220.712 47.2683C221.373 47.2683 222.081 47.1833 222.837 47.0133C223.611 46.8433 224.386 46.5789 225.16 46.22C225.954 45.8611 226.615 45.4361 227.144 44.945L228.815 47.8067C228.116 48.94 227.087 49.8939 225.727 50.6683C224.386 51.4239 223.092 51.9339 221.845 52.1983C220.599 52.4628 219.409 52.595 218.275 52.595ZM241.376 52H232.225V33.6683L230.525 32.62V29.4183L236.616 27.9167H238.911L239.733 34.66C240.507 30.0322 242.991 27.7183 247.185 27.7183C247.657 27.7183 248.148 27.8033 248.658 27.9733L247.695 38.06C247.298 37.7011 246.429 37.5217 245.088 37.5217C243.161 37.5217 241.924 38.0317 241.376 39.0517V52Z" fill="white"/>
<path d="M23.3729 28.3441C22.5614 28.5572 21.402 29.0416 20.5712 29.5259C17.8467 31.1535 16.0304 33.3428 15.0642 36.2104C14.5812 37.5666 14.5232 38.051 14.5232 40.0854C14.5232 42.1004 14.6005 42.5848 15.0449 43.8248C16.3395 47.3898 18.8901 50.0442 22.3102 51.3618C24.0492 52.0205 27.6046 52.2143 29.4789 51.7299C32.2806 51.013 34.9472 49.0949 36.5896 46.6148C39.7198 41.8873 38.9856 35.3385 34.8505 31.3666C33.2661 29.8166 31.7589 28.9447 29.6914 28.3828C27.9137 27.879 25.3632 27.879 23.3729 28.3441ZM30.1938 29.3903C39.5846 32.7035 40.3382 45.6267 31.4111 50.1605C25.5371 53.1636 18.0592 50.0442 15.8565 43.6892C13.7503 37.586 17.209 31.076 23.6048 29.1191C25.2859 28.5959 28.3195 28.7316 30.1938 29.3903Z" fill="white"/>
<path d="M25.6334 30.0298C22.9669 30.4366 21.3824 31.1341 19.6821 32.7229C18.4454 33.866 17.6725 35.0867 16.9383 36.9854C16.3972 38.4192 16.3393 41.0736 16.803 42.6624C18.3874 47.9518 23.7784 51.1099 28.9762 49.7537C30.6766 49.3274 31.7393 48.7074 33.2079 47.3705C35.43 45.3168 36.4541 43.0305 36.4541 40.1048C36.4541 35.1254 33.2852 31.231 28.4159 30.2041C27.1019 29.9329 26.5995 29.8941 25.6334 30.0298ZM28.6284 31.076C29.4593 31.2891 30.5413 31.696 31.0244 31.9866C31.9133 32.5098 33.8262 34.176 33.6909 34.3117C33.6523 34.3504 33.0919 34.2342 32.4736 34.0792C29.5173 33.2848 25.9812 34.021 23.45 35.9779C23.0442 36.2879 22.6771 36.5011 22.6191 36.4429C22.4645 36.2879 23.5852 34.021 24.3002 33.0523C24.8219 32.3354 26.6575 30.7273 27.0053 30.7079C27.0633 30.6885 27.7975 30.8629 28.6284 31.076ZM24.0296 32.1223C22.9669 33.3623 21.8655 35.5323 21.5564 37.0436C21.4404 37.6442 21.3824 38.9036 21.4211 39.8336L21.4984 41.5386L20.9767 41.0349C20.1458 40.2405 19.1024 37.9348 18.8705 36.4236C18.6773 35.1448 18.6773 35.0867 19.1604 34.4473C20.3004 32.9554 21.7109 31.9285 23.4693 31.3473C24.1842 31.0954 24.7832 30.9404 24.8412 30.9791C24.8798 31.0373 24.5127 31.541 24.0296 32.1223ZM32.2031 34.8542C34.1933 35.3773 34.6377 35.6679 35.1015 36.7723C35.6425 38.0123 35.8357 40.6861 35.4879 42.1005C35.372 42.643 35.1788 43.1274 35.0822 43.1855C35.0049 43.2436 34.831 42.9142 34.6957 42.4686C33.8455 39.2911 31.2563 36.4429 28.1453 35.3192C27.6043 35.106 27.3918 34.951 27.5657 34.8929C27.7203 34.8348 27.9908 34.7379 28.1453 34.6992C28.7637 34.486 31.1983 34.5829 32.2031 34.8542ZM27.6236 35.9392C29.5945 36.5979 30.039 36.9467 30.3868 38.2061C30.58 38.8067 30.7346 39.853 30.7346 40.5117C30.7539 41.6549 30.7153 41.7517 29.981 42.5074C29.5559 42.953 28.8216 43.573 28.3386 43.883C27.585 44.4061 27.3531 44.4643 26.5223 44.3674C26.0005 44.3093 25.0151 43.9993 24.3388 43.6892C23.2567 43.1661 23.0635 42.9917 22.7157 42.2167C22.4838 41.713 22.2713 40.6667 22.2133 39.8723L22.0974 38.4192L22.851 37.6248C23.8557 36.5979 25.4209 35.5323 25.9812 35.5323C26.2131 35.5323 26.9667 35.7067 27.6236 35.9392ZM18.2908 37.5667C18.4647 38.0466 19.2763 40.1242 19.9526 41.0736C21.1313 42.6817 23.4306 44.4061 25.0731 44.9099C25.5175 45.0455 25.4982 45.0649 24.8605 45.2586C23.7591 45.588 20.8801 45.3361 19.5468 44.813C18.5227 44.4061 18.3488 44.2511 17.9237 43.3792C17.4986 42.5267 17.4406 42.1586 17.4213 40.1823C17.4213 37.9154 18.0396 36.7482 18.1169 36.9273C18.1942 37.1064 18.1169 37.0868 18.2908 37.5667ZM33.1692 40.8798C33.8069 42.178 33.9808 42.7592 34.0774 43.9024C34.0774 43.9024 34.2807 45.2145 34.174 45.3168C34.0673 45.419 33.0726 46.4405 33.0726 46.4405C31.8746 47.6612 29.8457 48.8043 28.4932 49.0174L27.6623 49.153L28.725 48.0099C30.7153 45.8593 31.8166 42.5849 31.5268 39.7173L31.3915 38.3417L31.8939 38.8067C32.1644 39.0586 32.7441 39.9886 33.1692 40.8798ZM30.0776 44.3868C29.5945 45.898 27.9328 47.9712 26.4063 48.9399C25.2083 49.7149 21.1313 48.1068 19.856 46.363L19.4309 45.8011L20.2617 45.9368C20.7255 46.0336 22.136 46.0918 23.4113 46.0918C25.6721 46.0724 25.7687 46.053 27.1792 45.3943C27.9714 45.0068 28.9762 44.4255 29.382 44.0768C29.8071 43.7474 30.1742 43.5149 30.2322 43.5536C30.2708 43.6117 30.2129 43.9799 30.0776 44.3868Z" fill="white"/>
</svg>
