<svg width="121" height="85" viewBox="0 0 121 85" fill="none" xmlns="http://www.w3.org/2000/svg">
<ellipse cx="60.5" cy="15.5" rx="13.5" ry="15.5" fill="white"/>
<path d="M39 57.5C39 50.2065 41.3705 43.2118 45.5901 38.0546C49.8097 32.8973 55.5326 30 61.5 30C67.4674 30 73.1903 32.8973 77.4099 38.0546C81.6295 43.2118 84 50.2065 84 57.5L61.5 57.5L39 57.5Z" fill="white"/>
<ellipse cx="100" cy="17.5" rx="12" ry="14.5" fill="white"/>
<path d="M79 57.5C79 50.4718 81.2125 43.7314 85.1508 38.7617C89.089 33.792 94.4305 31 100 31C105.57 31 110.911 33.792 114.849 38.7617C118.788 43.7314 121 50.4718 121 57.5L100 57.5L79 57.5Z" fill="white"/>
<ellipse cx="21.5" cy="17.5" rx="12.5" ry="14.5" fill="white"/>
<path d="M0 57.5C0 50.4718 2.21249 43.7314 6.15076 38.7617C10.089 33.792 15.4305 31 21 31C26.5695 31 31.911 33.792 35.8492 38.7617C39.7875 43.7314 42 50.4718 42 57.5L21 57.5L0 57.5Z" fill="white"/>
</svg>
