<svg width="62" height="56" viewBox="0 0 62 56" fill="none" xmlns="http://www.w3.org/2000/svg">
<path d="M2.46823 0.241358C1.54419 0.643723 0.322075 2.45436 0.11342 3.69499C0.0239971 4.29854 -0.0356185 15.5648 0.0239971 28.7422C0.11342 55.4324 -0.00581067 53.7559 2.14035 55.2312C3.06439 55.8683 3.8692 55.9019 30.8154 55.9019C57.7617 55.9019 58.5665 55.8683 59.4905 55.2312C61.6367 53.7559 61.5174 55.466 61.6069 28.6416C61.6665 13.1841 61.5771 4.13088 61.3684 3.32615C61.2194 2.62202 60.653 1.6161 60.1761 1.07962L60.1407 1.04105C59.5742 0.424412 58.7758 0.0725667 57.9385 0.0705669L31.1731 0.00664345C15.7327 -0.026887 2.82593 0.0737058 2.46823 0.241358ZM57.1953 4.60031C57.5232 4.96914 57.8213 5.53916 57.8213 5.84094C57.9405 7.68511 57.9107 34.7777 57.8213 34.7777C57.7319 34.7777 56.2415 33.2018 54.5126 31.257C50.0414 26.328 50.4886 26.261 44.1991 32.967L41.4534 35.9051C40.2859 37.1543 38.312 37.1766 37.1166 35.9541L36.6876 35.5154C35.2568 34.0065 31.8885 30.3181 29.176 27.2333C24.0491 21.3991 23.0058 20.4937 21.9625 20.8961C21.6048 20.9967 17.5212 24.3497 12.8711 28.3063C8.22114 32.2294 4.22689 35.5489 3.98843 35.6495C3.60093 35.8171 3.54131 34.0065 3.54131 21.2649C3.54131 11.9845 3.54131 7.63644 3.54132 5.68763C3.54132 4.76251 4.06171 4.09917 4.98588 4.05723C7.89863 3.92505 15.5108 3.9297 30.875 3.9297C56.2117 3.9297 56.5992 3.9297 57.1953 4.60031ZM34.2433 38.6337C39.251 43.9315 44.0799 49.0952 44.9741 50.0676V50.0676C45.6047 50.764 45.1105 51.8782 44.171 51.8782H25.9866H5.35959V51.8782C4.37789 51.8416 3.60093 51.0352 3.60093 50.0528L3.60093 46.0439L3.60093 41.9069C3.60093 41.8451 3.52828 41.8121 3.4817 41.8526V41.8526L5.98555 39.6731C7.35671 38.466 11.5596 34.8783 15.3154 31.6594L20.5193 27.2308C21.4453 26.4428 22.8261 26.5176 23.6616 27.401V27.401C24.4962 28.2393 29.2356 33.3024 34.2433 38.6337ZM55.4367 37.9631L57.0641 39.611C57.6074 40.1611 57.9173 40.8998 57.9292 41.6729L57.9871 45.438L58.0001 50.0676V50.0676C58.0001 51.0676 57.1898 51.8782 56.1898 51.8782C55.5566 51.8782 54.8279 51.8782 54.1251 51.8782L53.265 51.8648C52.4438 51.8519 51.6637 51.503 51.1068 50.8993L47.0607 46.5133L44.0146 43.1907C42.9574 42.0375 42.9639 40.2654 44.0295 39.12L46.1664 36.823L48.8822 33.9039C49.5943 33.1385 50.8018 33.1241 51.5318 33.8724V33.8724C52.277 34.61 54.0357 36.4542 55.4367 37.9631Z" fill="white"/>
<path d="M46.3897 16.2401C46.3897 19.6711 43.9172 22.4524 40.8671 22.4524C37.8171 22.4524 35.3445 19.6711 35.3445 16.2401C35.3445 12.8092 37.8171 10.0278 40.8671 10.0278C43.9172 10.0278 46.3897 12.8092 46.3897 16.2401ZM37.6631 16.2401C37.6631 18.2307 39.0976 19.8443 40.8671 19.8443C42.6367 19.8443 44.0712 18.2307 44.0712 16.2401C44.0712 14.2496 42.6367 12.6359 40.8671 12.6359C39.0976 12.6359 37.6631 14.2496 37.6631 16.2401Z" fill="white"/>
</svg>
