<svg width="56" height="56" viewBox="0 0 56 56" fill="none" xmlns="http://www.w3.org/2000/svg">
<path d="M5.65584 5.84677C4.30149 6.37777 2.94714 8.07698 2.94714 9.27173C2.94714 9.74963 3.10967 9.80273 4.89741 9.80273C6.3601 9.80273 6.95602 9.69653 7.36232 9.32483C7.84989 8.90003 9.25841 8.87348 27.6776 8.79383C47.1802 8.74073 47.5052 8.74073 48.2366 9.27173C48.8325 9.69653 49.4013 9.80273 51.0536 9.80273H52.345C52.734 9.80273 53.0188 9.43623 52.9226 9.05933V9.05933C52.6518 7.97078 51.9204 6.88222 51.0807 6.24502C50.3223 5.68747 50.2139 5.68747 28.3276 5.63437C14.0799 5.60782 6.08923 5.68747 5.65584 5.84677Z" fill="#696969"/>
<path d="M2.24294 11.9268C1.40324 12.2454 0.292677 13.6791 0.103068 14.6615C0.0218067 15.1394 -0.0323673 24.0602 0.0218067 34.4944C0.103068 55.6283 -0.00528028 54.3008 1.94498 55.469C2.78468 55.9734 3.51603 56 28.0027 56C52.4893 56 53.2206 55.9734 54.0603 55.469C56.0106 54.3008 55.9023 55.6548 55.9835 34.4148C56.0377 22.1752 55.9564 15.0066 55.7668 14.3694C55.6314 13.8119 55.1167 13.0154 54.6833 12.5906V12.5906C54.1441 12.079 53.4296 11.7932 52.6863 11.7916L28.3277 11.741C14.2966 11.7144 2.56798 11.7941 2.24294 11.9268ZM51.9746 15.3783C52.2726 15.6704 52.5435 16.1217 52.5435 16.3607C52.6518 17.8209 52.6247 39.2734 52.5435 39.2734C52.4622 39.2734 51.1079 38.0256 49.5368 36.4857C45.4738 32.5828 45.8801 32.5297 40.1647 37.8397L37.7225 40.1168C36.5892 41.1734 34.8377 41.1932 33.6809 40.1623L33.3388 39.8575C32.0386 38.6628 28.9778 35.7423 26.5129 33.2997C21.8539 28.6799 20.9059 27.9631 19.9578 28.2817C19.6328 28.3613 15.9219 31.0163 11.6963 34.1493C7.47073 37.2556 3.84107 39.8841 3.62438 39.9637C3.27225 40.0965 3.21807 38.6628 3.21807 28.5737C3.21807 21.8378 3.21807 18.3835 3.21807 16.6659C3.21807 15.6716 3.79809 14.9722 4.79187 14.9388C7.61744 14.8439 14.5318 14.8473 28.0568 14.8473C51.0808 14.8473 51.4329 14.8473 51.9746 15.3783ZM31.1177 42.3267C35.6683 46.5216 40.0564 50.6103 40.869 51.3803V51.3803C41.4095 51.9004 41.0413 52.814 40.2912 52.814H23.6146H4.87038V52.814C3.97948 52.785 3.27225 52.0545 3.27225 51.1631L3.27225 48.1943L3.27225 44.9293C3.27225 44.8735 3.20837 44.8418 3.1639 44.8755V44.8755L5.4392 43.1497C6.68521 42.1939 10.5045 39.3531 13.9174 36.8043L18.6682 33.2815C19.5265 32.645 20.716 32.7084 21.5018 33.4324V33.4324C22.2602 34.0962 26.5671 38.1052 31.1177 42.3267ZM50.3765 41.7957L51.6333 42.9046C52.265 43.4619 52.6332 44.259 52.6481 45.1012L52.6942 47.7145L52.706 51.3803V51.3803C52.706 52.1721 52.0645 52.814 51.2727 52.814C50.6516 52.814 49.9033 52.814 49.1847 52.814L48.4036 52.8034C47.6517 52.7931 46.9311 52.5009 46.3844 51.9846L42.7651 48.566L40.6004 46.5085C39.3498 45.3198 39.3571 43.3238 40.6164 42.1444L41.9525 40.893L44.4165 38.5852C45.0917 37.9527 46.1381 37.9403 46.8281 38.5566V38.5566C47.5053 39.1407 49.1034 40.6009 50.3765 41.7957Z" fill="#696969"/>
<path d="M42.1554 24.5948C42.1554 27.3115 39.9085 29.5138 37.1369 29.5138C34.3653 29.5138 32.1184 27.3115 32.1184 24.5948C32.1184 21.8781 34.3653 19.6758 37.1369 19.6758C39.9085 19.6758 42.1554 21.8781 42.1554 24.5948ZM34.2253 24.5948C34.2253 26.171 35.5289 27.4487 37.1369 27.4487C38.7449 27.4487 40.0485 26.171 40.0485 24.5948C40.0485 23.0186 38.7449 21.7409 37.1369 21.7409C35.5289 21.7409 34.2253 23.0186 34.2253 24.5948Z" fill="#696969"/>
<path d="M9.25847 0.165123C8.17499 0.377524 6.73938 2.15638 6.73938 3.32459C6.73938 3.66974 7.09151 3.72284 8.9876 3.56354C12.9694 3.24494 44.4715 3.13874 44.7695 3.43079C44.885 3.54399 46.4384 3.6572 46.8934 3.68808C46.9769 3.69375 47.0605 3.69633 47.1442 3.6962C48.8659 3.69356 48.9951 3.63139 48.9951 3.13874C48.9951 2.23603 47.9929 0.881976 46.9906 0.404074C46.178 0.0323725 44.0923 -0.0207277 27.9485 0.00582238C18.0076 0.0323725 9.58351 0.112023 9.25847 0.165123Z" fill="#696969"/>
<path d="M5.65584 5.84677C4.30149 6.37777 2.94714 8.07698 2.94714 9.27173C2.94714 9.74963 3.10967 9.80273 4.89741 9.80273C6.3601 9.80273 6.95602 9.69653 7.36232 9.32483C7.84989 8.90003 9.25841 8.87348 27.6776 8.79383C47.1802 8.74073 47.5052 8.74073 48.2366 9.27173C48.8325 9.69653 49.4013 9.80273 51.0536 9.80273H52.345C52.734 9.80273 53.0188 9.43623 52.9226 9.05933V9.05933C52.6518 7.97078 51.9204 6.88222 51.0807 6.24502C50.3223 5.68747 50.2139 5.68747 28.3276 5.63437C14.0799 5.60782 6.08923 5.68747 5.65584 5.84677Z" fill="#696969"/>
<path d="M2.24294 11.9268C1.40324 12.2454 0.292677 13.6791 0.103068 14.6615C0.0218067 15.1394 -0.0323673 24.0602 0.0218067 34.4944C0.103068 55.6283 -0.00528028 54.3008 1.94498 55.469C2.78468 55.9734 3.51603 56 28.0027 56C52.4893 56 53.2206 55.9734 54.0603 55.469C56.0106 54.3008 55.9023 55.6548 55.9835 34.4148C56.0377 22.1752 55.9564 15.0066 55.7668 14.3694C55.6314 13.8119 55.1167 13.0154 54.6833 12.5906V12.5906C54.1441 12.079 53.4296 11.7932 52.6863 11.7916L28.3277 11.741C14.2966 11.7144 2.56798 11.7941 2.24294 11.9268ZM51.9746 15.3783C52.2726 15.6704 52.5435 16.1217 52.5435 16.3607C52.6518 17.8209 52.6247 39.2734 52.5435 39.2734C52.4622 39.2734 51.1079 38.0256 49.5368 36.4857C45.4738 32.5828 45.8801 32.5297 40.1647 37.8397L37.7225 40.1168C36.5892 41.1734 34.8377 41.1932 33.6809 40.1623L33.3388 39.8575C32.0386 38.6628 28.9778 35.7423 26.5129 33.2997C21.8539 28.6799 20.9059 27.9631 19.9578 28.2817C19.6328 28.3613 15.9219 31.0163 11.6963 34.1493C7.47073 37.2556 3.84107 39.8841 3.62438 39.9637C3.27225 40.0965 3.21807 38.6628 3.21807 28.5737C3.21807 21.8378 3.21807 18.3835 3.21807 16.6659C3.21807 15.6716 3.79809 14.9722 4.79187 14.9388C7.61744 14.8439 14.5318 14.8473 28.0568 14.8473C51.0808 14.8473 51.4329 14.8473 51.9746 15.3783ZM31.1177 42.3267C35.6683 46.5216 40.0564 50.6103 40.869 51.3803V51.3803C41.4095 51.9004 41.0413 52.814 40.2912 52.814H23.6146H4.87038V52.814C3.97948 52.785 3.27225 52.0545 3.27225 51.1631L3.27225 48.1943L3.27225 44.9293C3.27225 44.8735 3.20837 44.8418 3.1639 44.8755V44.8755L5.4392 43.1497C6.68521 42.1939 10.5045 39.3531 13.9174 36.8043L18.6682 33.2815C19.5265 32.645 20.716 32.7084 21.5018 33.4324V33.4324C22.2602 34.0962 26.5671 38.1052 31.1177 42.3267ZM50.3765 41.7957L51.6333 42.9046C52.265 43.4619 52.6332 44.259 52.6481 45.1012L52.6942 47.7145L52.706 51.3803V51.3803C52.706 52.1721 52.0645 52.814 51.2727 52.814C50.6516 52.814 49.9033 52.814 49.1847 52.814L48.4036 52.8034C47.6517 52.7931 46.9311 52.5009 46.3844 51.9846L42.7651 48.566L40.6004 46.5085C39.3498 45.3198 39.3571 43.3238 40.6164 42.1444L41.9525 40.893L44.4165 38.5852C45.0917 37.9527 46.1381 37.9403 46.8281 38.5566V38.5566C47.5053 39.1407 49.1034 40.6009 50.3765 41.7957Z" fill="#696969"/>
<path d="M42.1554 24.5948C42.1554 27.3115 39.9085 29.5138 37.1369 29.5138C34.3653 29.5138 32.1184 27.3115 32.1184 24.5948C32.1184 21.8781 34.3653 19.6758 37.1369 19.6758C39.9085 19.6758 42.1554 21.8781 42.1554 24.5948ZM34.2253 24.5948C34.2253 26.171 35.5289 27.4487 37.1369 27.4487C38.7449 27.4487 40.0485 26.171 40.0485 24.5948C40.0485 23.0186 38.7449 21.7409 37.1369 21.7409C35.5289 21.7409 34.2253 23.0186 34.2253 24.5948Z" fill="#696969"/>
</svg>
